<?xml version="1.0" standalone="no"?>
<!DOCTYPE svg PUBLIC "-//W3C//DTD SVG 20010904//EN"
 "http://www.w3.org/TR/2001/REC-SVG-20010904/DTD/svg10.dtd">
<svg version="1.0" xmlns="http://www.w3.org/2000/svg"
 width="100.000000pt" height="100.000000pt" viewBox="0 0 100.000000 100.000000"
 preserveAspectRatio="xMidYMid meet">
<metadata>
Created by potrace 1.14, written by Peter Selinger 2001-2017
</metadata>
<g transform="translate(0.000000,100.000000) scale(0.100000,-0.100000)"
fill="#000000" stroke="none">
<path d="M490 893 c-111 -28 -177 -95 -222 -222 -18 -52 -28 -113 -37 -218 -1
-6 -15 -11 -33 -10 -38 1 -78 -11 -78 -23 0 -22 15 -42 36 -50 31 -12 23 -30
-26 -60 -24 -15 -41 -33 -41 -45 -4 -59 1 -119 10 -128 7 -7 65 -11 148 -12
163 -1 173 4 173 86 0 62 -10 81 -55 108 -38 22 -47 51 -15 51 28 0 43 32 26
55 -10 14 -26 18 -60 18 -53 -1 -54 3 -25 67 32 70 84 116 202 177 96 49 134
83 92 83 -23 0 -18 15 10 30 25 14 34 40 13 40 -6 0 -3 9 7 20 36 40 -30 58
-125 33z"/>
<path d="M467 363 c1 -58 5 -77 15 -75 7 2 6 -4 -5 -16 -35 -39 -27 -140 12
-143 9 -1 102 -2 207 -3 l190 -1 0 77 c0 63 -3 78 -15 78 -11 0 -8 5 7 16 18
12 22 25 22 64 0 77 -8 80 -240 80 l-195 0 2 -77z"/>
</g>
</svg>
